SplineFontDB: 3.2
FontName: SixOnePixelsFont
FullName: Six One Pixels Font
FamilyName: SixOnePixelsFont
Weight: Book
Copyright: Mounir Tohami
Version: 001.000
ItalicAngle: 0
UnderlinePosition: 0
UnderlineWidth: 0
Ascent: 857
Descent: 143
InvalidEm: 0
sfntRevision: 0x00010000
LayerCount: 2
Layer: 0 1 "Back" 1
Layer: 1 1 "Fore" 0
XUID: [1021 465 1097079576 24528]
StyleMap: 0x0040
FSType: 4
OS2Version: 2
OS2_WeightWidthSlopeOnly: 0
OS2_UseTypoMetrics: 0
CreationTime: 1707066177
ModificationTime: 1710285083
PfmFamily: 81
TTFWeight: 400
TTFWidth: 5
LineGap: 0
VLineGap: 0
Panose: 0 0 4 0 0 0 0 0 0 0
OS2TypoAscent: 857
OS2TypoAOffset: 0
OS2TypoDescent: -143
OS2TypoDOffset: 0
OS2TypoLinegap: 0
OS2WinAscent: 857
OS2WinAOffset: 0
OS2WinDescent: 143
OS2WinDOffset: 0
HheadAscent: 857
HheadAOffset: 0
HheadDescent: -143
HheadDOffset: 0
OS2SubXSize: 571
OS2SubYSize: 571
OS2SubXOff: 0
OS2SubYOff: 0
OS2SupXSize: 571
OS2SupYSize: 571
OS2SupXOff: 0
OS2SupYOff: 571
OS2StrikeYSize: 0
OS2StrikeYPos: 143
OS2CapHeight: 857
OS2XHeight: 714
OS2Vendor: 'FSTR'
OS2CodePages: 200101ff.cdff0000
OS2UnicodeRanges: 00000001.00000000.00000000.00000000
MarkAttachClasses: 1
DEI: 91125
ShortTable: maxp 16
  1
  0
  98
  39
  9
  0
  0
  2
  0
  0
  0
  0
  0
  0
  0
  0
EndShort
LangName: 1033 "" "" "Regular" "" "" "001.000" "" "" "" "Mounir Tohami" "" "" "https://mounirtohami.itch.io/"
GaspTable: 1 65535 2 0
Encoding: UnicodeBmp
UnicodeInterp: none
NameList: AGL For New Fonts
DisplaySize: -36
AntiAlias: 1
FitToEm: 0
WinInfo: 0 26 17
BeginPrivate: 0
EndPrivate
BeginChars: 65539 98

StartChar: .notdef
Encoding: 65536 -1 0
Width: 571
GlyphClass: 1
Flags: W
LayerCount: 2
Fore
SplineSet
625 24 m 1,0,-1
 330 419 l 1,1,-1
 33 24 l 1,2,-1
 625 24 l 1,0,-1
24 33 m 1,3,4
 25 33 25 33 320 428 c 1,5,-1
 24 823 l 1,6,-1
 24 33 l 1,3,4
635 33 m 1,7,-1
 635 823 l 1,8,9
 635 822 635 822 339 428 c 1,10,-1
 635 33 l 1,7,-1
330 438 m 1,11,-1
 625 832 l 1,12,-1
 33 832 l 1,13,-1
 330 438 l 1,11,-1
0 0 m 1,14,-1
 0 857 l 1,15,-1
 659 857 l 1,16,-1
 659 0 l 1,17,-1
 0 0 l 1,14,-1
EndSplineSet
EndChar

StartChar: exclam
Encoding: 33 33 4
Width: 285
GlyphClass: 1
Flags: W
LayerCount: 2
Fore
SplineSet
-0 0 m 1,0,-1
 -0 143 l 1,1,-1
 142 143 l 1,2,-1
 142 0 l 1,3,-1
 -0 0 l 1,0,-1
-0 285 m 1,4,-1
 -0 857 l 1,5,-1
 142 857 l 1,6,-1
 142 285 l 1,7,-1
 -0 285 l 1,4,-1
EndSplineSet
EndChar

StartChar: quotedbl
Encoding: 34 34 5
Width: 571
GlyphClass: 1
Flags: W
LayerCount: 2
Fore
SplineSet
0 571 m 1,0,1
 0 572 0 572 0 857 c 1,2,-1
 143 857 l 1,3,-1
 143 571 l 1,4,-1
 0 571 l 1,0,1
285 571 m 1,5,6
 285 572 285 572 285 857 c 1,7,-1
 428 857 l 1,8,-1
 428 571 l 1,9,-1
 285 571 l 1,5,6
EndSplineSet
EndChar

StartChar: numbersign
Encoding: 35 35 6
Width: 857
GlyphClass: 1
Flags: W
LayerCount: 2
Fore
SplineSet
428 285 m 1,0,-1
 428 571 l 1,1,-1
 285 571 l 1,2,3
 285 570 285 570 285 285 c 1,4,-1
 428 285 l 1,0,-1
143 0 m 1,5,-1
 143 143 l 1,6,-1
 0 143 l 1,7,-1
 0 285 l 1,8,-1
 143 285 l 1,9,-1
 143 571 l 1,10,-1
 0 571 l 1,11,-1
 0 714 l 1,12,-1
 143 714 l 1,13,14
 143 715 143 715 143 857 c 1,15,-1
 285 857 l 1,16,-1
 285 714 l 1,17,-1
 428 714 l 1,18,19
 428 715 428 715 428 857 c 1,20,-1
 571 857 l 1,21,-1
 571 714 l 1,22,-1
 714 714 l 1,23,-1
 714 571 l 1,24,-1
 571 571 l 1,25,26
 571 570 571 570 571 285 c 1,27,-1
 714 285 l 1,28,-1
 714 143 l 1,29,-1
 571 143 l 1,30,-1
 571 0 l 1,31,32
 570 0 570 0 428 0 c 1,33,-1
 428 143 l 1,34,-1
 285 143 l 1,35,-1
 285 0 l 1,36,-1
 143 0 l 1,5,-1
EndSplineSet
EndChar

StartChar: dollar
Encoding: 36 36 7
Width: 714
GlyphClass: 1
Flags: W
LayerCount: 2
Fore
SplineSet
428 143 m 1,0,-1
 428 285 l 1,1,-1
 571 285 l 1,2,-1
 571 143 l 1,3,-1
 428 143 l 1,0,-1
0 428 m 1,4,-1
 0 571 l 1,5,-1
 143 571 l 1,6,7
 143 570 143 570 143 428 c 1,8,-1
 0 428 l 1,4,-1
143 -143 m 1,9,-1
 143 0 l 1,10,-1
 0 0 l 1,11,-1
 0 143 l 1,12,-1
 143 143 l 1,13,-1
 143 428 l 1,14,-1
 285 428 l 1,15,-1
 285 571 l 1,16,-1
 143 571 l 1,17,-1
 143 714 l 1,18,-1
 285 714 l 1,19,20
 285 715 285 715 285 857 c 1,21,-1
 428 857 l 1,22,-1
 428 714 l 1,23,-1
 571 714 l 1,24,-1
 571 571 l 1,25,26
 570 571 570 571 428 571 c 1,27,28
 428 570 428 570 428 285 c 1,29,-1
 285 285 l 1,30,-1
 285 143 l 1,31,-1
 428 143 l 1,32,-1
 428 0 l 1,33,-1
 285 0 l 1,34,-1
 285 -143 l 1,35,-1
 143 -143 l 1,9,-1
EndSplineSet
EndChar

StartChar: percent
Encoding: 37 37 8
Width: 571
GlyphClass: 1
Flags: W
LayerCount: 2
Fore
SplineSet
285 0 m 1,0,-1
 285 143 l 1,1,-1
 428 143 l 1,2,-1
 428 0 l 1,3,-1
 285 0 l 1,0,-1
0 0 m 1,4,-1
 0 285 l 1,5,-1
 143 285 l 1,6,-1
 143 0 l 1,7,-1
 0 0 l 1,4,-1
143 285 m 1,8,-1
 143 571 l 1,9,-1
 285 571 l 1,10,11
 285 570 285 570 285 285 c 1,12,-1
 143 285 l 1,8,-1
0 714 m 1,13,14
 0 715 0 715 0 857 c 1,15,-1
 143 857 l 1,16,-1
 143 714 l 1,17,-1
 0 714 l 1,13,14
285 571 m 1,18,19
 285 572 285 572 285 857 c 1,20,-1
 428 857 l 1,21,-1
 428 571 l 1,22,-1
 285 571 l 1,18,19
EndSplineSet
EndChar

StartChar: ampersand
Encoding: 38 38 9
Width: 857
GlyphClass: 1
Flags: W
LayerCount: 2
Fore
SplineSet
143 0 m 1,0,-1
 143 143 l 1,1,-1
 428 143 l 1,2,-1
 428 0 l 1,3,-1
 143 0 l 1,0,-1
571 0 m 1,4,-1
 571 143 l 1,5,-1
 714 143 l 1,6,-1
 714 0 l 1,7,-1
 571 0 l 1,4,-1
0 143 m 1,8,-1
 0 428 l 1,9,-1
 143 428 l 1,10,-1
 143 143 l 1,11,-1
 0 143 l 1,8,-1
428 143 m 1,12,-1
 428 428 l 1,13,-1
 571 428 l 1,14,-1
 571 143 l 1,15,-1
 428 143 l 1,12,-1
143 428 m 1,16,-1
 143 571 l 1,17,-1
 428 571 l 1,18,19
 428 570 428 570 428 428 c 1,20,-1
 143 428 l 1,16,-1
571 428 m 1,21,-1
 571 571 l 1,22,-1
 714 571 l 1,23,24
 714 570 714 570 714 428 c 1,25,-1
 571 428 l 1,21,-1
0 571 m 1,26,-1
 0 714 l 1,27,-1
 143 714 l 1,28,-1
 143 571 l 1,29,-1
 0 571 l 1,26,-1
143 714 m 1,30,31
 143 715 143 715 143 857 c 1,32,-1
 428 857 l 1,33,-1
 428 714 l 1,34,-1
 143 714 l 1,30,31
EndSplineSet
EndChar

StartChar: quotesingle
Encoding: 39 39 10
Width: 285
GlyphClass: 1
Flags: W
LayerCount: 2
Fore
SplineSet
0 571 m 1,0,1
 0 572 0 572 0 857 c 1,2,-1
 143 857 l 1,3,-1
 143 571 l 1,4,-1
 0 571 l 1,0,1
EndSplineSet
EndChar

StartChar: parenleft
Encoding: 40 40 11
Width: 428
GlyphClass: 1
Flags: W
LayerCount: 2
Fore
SplineSet
143 -143 m 1,0,-1
 143 0 l 1,1,-1
 285 0 l 1,2,-1
 285 -143 l 1,3,-1
 143 -143 l 1,0,-1
0 0 m 1,4,-1
 0 714 l 1,5,-1
 143 714 l 1,6,-1
 143 0 l 1,7,-1
 0 0 l 1,4,-1
143 714 m 1,8,9
 143 715 143 715 143 857 c 1,10,-1
 285 857 l 1,11,-1
 285 714 l 1,12,-1
 143 714 l 1,8,9
EndSplineSet
EndChar

StartChar: parenright
Encoding: 41 41 12
Width: 428
GlyphClass: 1
Flags: W
LayerCount: 2
Fore
SplineSet
0 -143 m 1,0,-1
 0 0 l 1,1,-1
 143 0 l 1,2,-1
 143 -143 l 1,3,-1
 0 -143 l 1,0,-1
143 0 m 1,4,-1
 143 714 l 1,5,-1
 285 714 l 1,6,-1
 285 0 l 1,7,-1
 143 0 l 1,4,-1
0 714 m 1,8,9
 0 715 0 715 0 857 c 1,10,-1
 143 857 l 1,11,-1
 143 714 l 1,12,-1
 0 714 l 1,8,9
EndSplineSet
EndChar

StartChar: asterisk
Encoding: 42 42 13
Width: 571
GlyphClass: 1
Flags: W
LayerCount: 2
Fore
SplineSet
0 428 m 1,0,-1
 0 571 l 1,1,-1
 143 571 l 1,2,3
 143 570 143 570 143 428 c 1,4,-1
 0 428 l 1,0,-1
285 428 m 1,5,-1
 285 571 l 1,6,-1
 428 571 l 1,7,8
 428 570 428 570 428 428 c 1,9,-1
 285 428 l 1,5,-1
143 571 m 1,10,-1
 143 714 l 1,11,-1
 285 714 l 1,12,-1
 285 571 l 1,13,-1
 143 571 l 1,10,-1
0 714 m 1,14,15
 0 715 0 715 0 857 c 1,16,-1
 143 857 l 1,17,-1
 143 714 l 1,18,-1
 0 714 l 1,14,15
285 714 m 1,19,20
 285 715 285 715 285 857 c 1,21,-1
 428 857 l 1,22,-1
 428 714 l 1,23,-1
 285 714 l 1,19,20
EndSplineSet
EndChar

StartChar: plus
Encoding: 43 43 14
Width: 857
GlyphClass: 1
Flags: W
LayerCount: 2
Fore
SplineSet
285 0 m 1,0,-1
 285 285 l 1,1,-1
 0 285 l 1,2,-1
 0 428 l 1,3,-1
 285 428 l 1,4,-1
 285 714 l 1,5,-1
 428 714 l 1,6,7
 428 713 428 713 428 428 c 1,8,-1
 714 428 l 1,9,-1
 714 285 l 1,10,11
 713 285 713 285 428 285 c 1,12,-1
 428 0 l 1,13,-1
 285 0 l 1,0,-1
EndSplineSet
EndChar

StartChar: comma
Encoding: 44 44 15
Width: 285
GlyphClass: 1
Flags: W
LayerCount: 2
Fore
SplineSet
0 -143 m 1,0,-1
 0 143 l 1,1,-1
 143 143 l 1,2,-1
 143 -143 l 1,3,-1
 0 -143 l 1,0,-1
EndSplineSet
EndChar

StartChar: hyphen
Encoding: 45 45 16
Width: 714
GlyphClass: 1
Flags: W
LayerCount: 2
Fore
SplineSet
0 285 m 1,0,-1
 0 428 l 1,1,-1
 571 428 l 1,2,-1
 571 285 l 1,3,-1
 0 285 l 1,0,-1
EndSplineSet
EndChar

StartChar: period
Encoding: 46 46 17
Width: 285
GlyphClass: 1
Flags: W
LayerCount: 2
Fore
SplineSet
0 0 m 1,0,-1
 0 143 l 1,1,-1
 143 143 l 1,2,-1
 143 0 l 1,3,-1
 0 0 l 1,0,-1
EndSplineSet
EndChar

StartChar: slash
Encoding: 47 47 18
Width: 571
GlyphClass: 1
Flags: W
LayerCount: 2
Fore
SplineSet
0 0 m 1,0,-1
 0 285 l 1,1,-1
 143 285 l 1,2,-1
 143 0 l 1,3,-1
 0 0 l 1,0,-1
143 285 m 1,4,-1
 143 571 l 1,5,-1
 285 571 l 1,6,7
 285 570 285 570 285 285 c 1,8,-1
 143 285 l 1,4,-1
285 571 m 1,9,10
 285 572 285 572 285 857 c 1,11,-1
 428 857 l 1,12,-1
 428 571 l 1,13,-1
 285 571 l 1,9,10
EndSplineSet
EndChar

StartChar: zero
Encoding: 48 48 19
Width: 714
GlyphClass: 1
Flags: W
LayerCount: 2
Fore
SplineSet
143 0 m 1,0,-1
 143 143 l 1,1,-1
 428 143 l 1,2,-1
 428 0 l 1,3,-1
 143 0 l 1,0,-1
0 143 m 1,4,-1
 0 714 l 1,5,-1
 143 714 l 1,6,7
 143 713 143 713 143 428 c 1,8,-1
 285 428 l 1,9,-1
 285 285 l 1,10,-1
 143 285 l 1,11,-1
 143 143 l 1,12,-1
 0 143 l 1,4,-1
428 143 m 1,13,-1
 428 428 l 1,14,-1
 285 428 l 1,15,-1
 285 571 l 1,16,-1
 428 571 l 1,17,-1
 428 714 l 1,18,-1
 571 714 l 1,19,-1
 571 143 l 1,20,-1
 428 143 l 1,13,-1
143 714 m 1,21,22
 143 715 143 715 143 857 c 1,23,-1
 428 857 l 1,24,-1
 428 714 l 1,25,-1
 143 714 l 1,21,22
EndSplineSet
EndChar

StartChar: one
Encoding: 49 49 20
Width: 571
GlyphClass: 1
Flags: W
LayerCount: 2
Fore
SplineSet
0 0 m 1,0,-1
 0 143 l 1,1,-1
 143 143 l 1,2,-1
 143 571 l 1,3,-1
 0 571 l 1,4,-1
 0 714 l 1,5,-1
 143 714 l 1,6,7
 143 715 143 715 143 857 c 1,8,-1
 285 857 l 1,9,-1
 285 143 l 1,10,-1
 428 143 l 1,11,-1
 428 0 l 1,12,-1
 0 0 l 1,0,-1
EndSplineSet
EndChar

StartChar: two
Encoding: 50 50 21
Width: 714
GlyphClass: 1
Flags: W
LayerCount: 2
Fore
SplineSet
0 0 m 1,0,-1
 0 143 l 1,1,-1
 143 143 l 1,2,-1
 143 285 l 1,3,-1
 285 285 l 1,4,-1
 285 143 l 1,5,-1
 571 143 l 1,6,-1
 571 0 l 1,7,-1
 0 0 l 1,0,-1
285 285 m 1,8,-1
 285 428 l 1,9,-1
 428 428 l 1,10,-1
 428 285 l 1,11,-1
 285 285 l 1,8,-1
0 571 m 1,12,-1
 0 714 l 1,13,-1
 143 714 l 1,14,-1
 143 571 l 1,15,-1
 0 571 l 1,12,-1
428 428 m 1,16,-1
 428 714 l 1,17,-1
 571 714 l 1,18,19
 571 713 571 713 571 428 c 1,20,-1
 428 428 l 1,16,-1
143 714 m 1,21,22
 143 715 143 715 143 857 c 1,23,-1
 428 857 l 1,24,-1
 428 714 l 1,25,-1
 143 714 l 1,21,22
EndSplineSet
EndChar

StartChar: three
Encoding: 51 51 22
Width: 714
GlyphClass: 1
Flags: W
LayerCount: 2
Fore
SplineSet
0 0 m 1,0,-1
 0 143 l 1,1,-1
 428 143 l 1,2,-1
 428 0 l 1,3,-1
 0 0 l 1,0,-1
428 143 m 1,4,-1
 428 428 l 1,5,-1
 571 428 l 1,6,-1
 571 143 l 1,7,-1
 428 143 l 1,4,-1
143 428 m 1,8,-1
 143 571 l 1,9,-1
 428 571 l 1,10,11
 428 570 428 570 428 428 c 1,12,-1
 143 428 l 1,8,-1
428 571 m 1,13,-1
 428 714 l 1,14,-1
 571 714 l 1,15,-1
 571 571 l 1,16,-1
 428 571 l 1,13,-1
0 714 m 1,17,18
 0 715 0 715 0 857 c 1,19,-1
 428 857 l 1,20,-1
 428 714 l 1,21,-1
 0 714 l 1,17,18
EndSplineSet
EndChar

StartChar: four
Encoding: 52 52 23
Width: 714
GlyphClass: 1
Flags: W
LayerCount: 2
Fore
SplineSet
285 0 m 1,0,-1
 285 285 l 1,1,-1
 0 285 l 1,2,-1
 0 857 l 1,3,-1
 143 857 l 1,4,-1
 143 428 l 1,5,-1
 285 428 l 1,6,-1
 285 857 l 1,7,-1
 428 857 l 1,8,-1
 428 428 l 1,9,-1
 571 428 l 1,10,-1
 571 285 l 1,11,12
 570 285 570 285 428 285 c 1,13,-1
 428 0 l 1,14,-1
 285 0 l 1,0,-1
EndSplineSet
EndChar

StartChar: five
Encoding: 53 53 24
Width: 714
GlyphClass: 1
Flags: W
LayerCount: 2
Fore
SplineSet
0 0 m 1,0,-1
 0 143 l 1,1,-1
 428 143 l 1,2,-1
 428 0 l 1,3,-1
 0 0 l 1,0,-1
428 143 m 1,4,-1
 428 428 l 1,5,-1
 571 428 l 1,6,-1
 571 143 l 1,7,-1
 428 143 l 1,4,-1
0 428 m 1,8,-1
 0 857 l 1,9,-1
 571 857 l 1,10,-1
 571 714 l 1,11,-1
 143 714 l 1,12,-1
 143 571 l 1,13,-1
 428 571 l 1,14,15
 428 570 428 570 428 428 c 1,16,-1
 0 428 l 1,8,-1
EndSplineSet
EndChar

StartChar: six
Encoding: 54 54 25
Width: 714
GlyphClass: 1
Flags: W
LayerCount: 2
Fore
SplineSet
143 0 m 1,0,-1
 143 143 l 1,1,-1
 428 143 l 1,2,-1
 428 0 l 1,3,-1
 143 0 l 1,0,-1
428 143 m 1,4,-1
 428 428 l 1,5,-1
 571 428 l 1,6,-1
 571 143 l 1,7,-1
 428 143 l 1,4,-1
0 143 m 1,8,-1
 0 714 l 1,9,-1
 143 714 l 1,10,-1
 143 571 l 1,11,-1
 428 571 l 1,12,13
 428 570 428 570 428 428 c 1,14,-1
 143 428 l 1,15,-1
 143 143 l 1,16,-1
 0 143 l 1,8,-1
143 714 m 1,17,18
 143 715 143 715 143 857 c 1,19,-1
 571 857 l 1,20,-1
 571 714 l 1,21,-1
 143 714 l 1,17,18
EndSplineSet
EndChar

StartChar: seven
Encoding: 55 55 26
Width: 714
GlyphClass: 1
Flags: W
LayerCount: 2
Fore
SplineSet
143 0 m 1,0,-1
 143 285 l 1,1,-1
 285 285 l 1,2,-1
 285 0 l 1,3,-1
 143 0 l 1,0,-1
285 285 m 1,4,-1
 285 571 l 1,5,-1
 428 571 l 1,6,7
 428 570 428 570 428 285 c 1,8,-1
 285 285 l 1,4,-1
428 571 m 1,9,-1
 428 714 l 1,10,-1
 0 714 l 1,11,12
 0 715 0 715 0 857 c 1,13,-1
 571 857 l 1,14,-1
 571 571 l 1,15,-1
 428 571 l 1,9,-1
EndSplineSet
EndChar

StartChar: eight
Encoding: 56 56 27
Width: 714
GlyphClass: 1
Flags: W
LayerCount: 2
Fore
SplineSet
143 0 m 1,0,-1
 143 143 l 1,1,-1
 428 143 l 1,2,-1
 428 0 l 1,3,-1
 143 0 l 1,0,-1
0 143 m 1,4,-1
 0 428 l 1,5,-1
 143 428 l 1,6,-1
 143 143 l 1,7,-1
 0 143 l 1,4,-1
428 143 m 1,8,-1
 428 428 l 1,9,-1
 571 428 l 1,10,-1
 571 143 l 1,11,-1
 428 143 l 1,8,-1
143 428 m 1,12,-1
 143 571 l 1,13,-1
 428 571 l 1,14,15
 428 570 428 570 428 428 c 1,16,-1
 143 428 l 1,12,-1
0 571 m 1,17,-1
 0 714 l 1,18,-1
 143 714 l 1,19,-1
 143 571 l 1,20,-1
 0 571 l 1,17,-1
428 571 m 1,21,-1
 428 714 l 1,22,-1
 571 714 l 1,23,-1
 571 571 l 1,24,-1
 428 571 l 1,21,-1
143 714 m 1,25,26
 143 715 143 715 143 857 c 1,27,-1
 428 857 l 1,28,-1
 428 714 l 1,29,-1
 143 714 l 1,25,26
EndSplineSet
EndChar

StartChar: nine
Encoding: 57 57 28
Width: 714
GlyphClass: 1
Flags: W
LayerCount: 2
Fore
SplineSet
0 0 m 1,0,-1
 0 143 l 1,1,-1
 428 143 l 1,2,-1
 428 0 l 1,3,-1
 0 0 l 1,0,-1
0 428 m 1,4,-1
 0 714 l 1,5,-1
 143 714 l 1,6,7
 143 713 143 713 143 428 c 1,8,-1
 0 428 l 1,4,-1
428 143 m 1,9,-1
 428 285 l 1,10,-1
 143 285 l 1,11,-1
 143 428 l 1,12,-1
 428 428 l 1,13,-1
 428 714 l 1,14,-1
 571 714 l 1,15,-1
 571 143 l 1,16,-1
 428 143 l 1,9,-1
143 714 m 1,17,18
 143 715 143 715 143 857 c 1,19,-1
 428 857 l 1,20,-1
 428 714 l 1,21,-1
 143 714 l 1,17,18
EndSplineSet
EndChar

StartChar: colon
Encoding: 58 58 29
Width: 285
GlyphClass: 1
Flags: W
LayerCount: 2
Fore
SplineSet
0 0 m 1,0,-1
 0 143 l 1,1,-1
 143 143 l 1,2,-1
 143 0 l 1,3,-1
 0 0 l 1,0,-1
0 428 m 1,4,-1
 0 571 l 1,5,-1
 143 571 l 1,6,7
 143 570 143 570 143 428 c 1,8,-1
 0 428 l 1,4,-1
EndSplineSet
EndChar

StartChar: semicolon
Encoding: 59 59 30
Width: 285
GlyphClass: 1
Flags: W
LayerCount: 2
Fore
SplineSet
0 0 m 1,0,-1
 0 285 l 1,1,-1
 143 285 l 1,2,-1
 143 0 l 1,3,-1
 0 0 l 1,0,-1
0 571 m 1,4,-1
 0 714 l 1,5,-1
 143 714 l 1,6,-1
 143 571 l 1,7,-1
 0 571 l 1,4,-1
EndSplineSet
EndChar

StartChar: less
Encoding: 60 60 31
Width: 571
GlyphClass: 1
Flags: W
LayerCount: 2
Fore
SplineSet
285 0 m 1,0,-1
 285 143 l 1,1,-1
 428 143 l 1,2,-1
 428 0 l 1,3,-1
 285 0 l 1,0,-1
143 143 m 1,4,-1
 143 285 l 1,5,-1
 285 285 l 1,6,-1
 285 143 l 1,7,-1
 143 143 l 1,4,-1
0 285 m 1,8,-1
 0 428 l 1,9,-1
 143 428 l 1,10,-1
 143 285 l 1,11,-1
 0 285 l 1,8,-1
143 428 m 1,12,-1
 143 571 l 1,13,-1
 285 571 l 1,14,15
 285 570 285 570 285 428 c 1,16,-1
 143 428 l 1,12,-1
285 571 m 1,17,-1
 285 714 l 1,18,-1
 428 714 l 1,19,-1
 428 571 l 1,20,-1
 285 571 l 1,17,-1
EndSplineSet
EndChar

StartChar: equal
Encoding: 61 61 32
Width: 714
GlyphClass: 1
Flags: W
LayerCount: 2
Fore
SplineSet
0 143 m 1,0,-1
 0 285 l 1,1,-1
 571 285 l 1,2,-1
 571 143 l 1,3,-1
 0 143 l 1,0,-1
0 428 m 1,4,-1
 0 571 l 1,5,-1
 571 571 l 1,6,7
 571 570 571 570 571 428 c 1,8,-1
 0 428 l 1,4,-1
EndSplineSet
EndChar

StartChar: greater
Encoding: 62 62 33
Width: 571
GlyphClass: 1
Flags: W
LayerCount: 2
Fore
SplineSet
0 0 m 1,0,-1
 0 143 l 1,1,-1
 143 143 l 1,2,-1
 143 0 l 1,3,-1
 0 0 l 1,0,-1
143 143 m 1,4,-1
 143 285 l 1,5,-1
 285 285 l 1,6,-1
 285 143 l 1,7,-1
 143 143 l 1,4,-1
285 285 m 1,8,-1
 285 428 l 1,9,-1
 428 428 l 1,10,-1
 428 285 l 1,11,-1
 285 285 l 1,8,-1
143 428 m 1,12,-1
 143 571 l 1,13,-1
 285 571 l 1,14,15
 285 570 285 570 285 428 c 1,16,-1
 143 428 l 1,12,-1
0 571 m 1,17,-1
 0 714 l 1,18,-1
 143 714 l 1,19,-1
 143 571 l 1,20,-1
 0 571 l 1,17,-1
EndSplineSet
EndChar

StartChar: question
Encoding: 63 63 34
Width: 714
GlyphClass: 1
Flags: W
LayerCount: 2
Fore
SplineSet
143 -143 m 1,0,-1
 143 0 l 1,1,-1
 285 0 l 1,2,-1
 285 -143 l 1,3,-1
 143 -143 l 1,0,-1
143 143 m 1,4,-1
 143 428 l 1,5,-1
 428 428 l 1,6,-1
 428 285 l 1,7,-1
 285 285 l 1,8,-1
 285 143 l 1,9,-1
 143 143 l 1,4,-1
428 428 m 1,10,-1
 428 714 l 1,11,-1
 571 714 l 1,12,13
 571 713 571 713 571 428 c 1,14,-1
 428 428 l 1,10,-1
0 714 m 1,15,16
 0 715 0 715 0 857 c 1,17,-1
 428 857 l 1,18,-1
 428 714 l 1,19,-1
 0 714 l 1,15,16
EndSplineSet
EndChar

StartChar: at
Encoding: 64 64 35
Width: 857
GlyphClass: 1
Flags: W
LayerCount: 2
Fore
SplineSet
143 -143 m 1,0,-1
 143 0 l 1,1,-1
 571 0 l 1,2,-1
 571 -143 l 1,3,-1
 143 -143 l 1,0,-1
0 0 m 1,4,-1
 0 714 l 1,5,-1
 143 714 l 1,6,-1
 143 0 l 1,7,-1
 0 0 l 1,4,-1
285 143 m 1,8,-1
 285 428 l 1,9,-1
 571 428 l 1,10,-1
 571 714 l 1,11,-1
 714 714 l 1,12,-1
 714 143 l 1,13,-1
 285 143 l 1,8,-1
143 714 m 1,14,15
 143 715 143 715 143 857 c 1,16,-1
 571 857 l 1,17,-1
 571 714 l 1,18,-1
 143 714 l 1,14,15
EndSplineSet
EndChar

StartChar: A
Encoding: 65 65 36
Width: 714
GlyphClass: 1
Flags: W
LayerCount: 2
Fore
SplineSet
0 0 m 1,0,-1
 0 714 l 1,1,-1
 143 714 l 1,2,3
 143 713 143 713 143 428 c 1,4,-1
 428 428 l 1,5,-1
 428 714 l 1,6,-1
 571 714 l 1,7,-1
 571 0 l 1,8,9
 570 0 570 0 428 0 c 1,10,-1
 428 285 l 1,11,-1
 143 285 l 1,12,-1
 143 0 l 1,13,-1
 0 0 l 1,0,-1
143 714 m 1,14,15
 143 715 143 715 143 857 c 1,16,-1
 428 857 l 1,17,-1
 428 714 l 1,18,-1
 143 714 l 1,14,15
EndSplineSet
EndChar

StartChar: B
Encoding: 66 66 37
Width: 714
GlyphClass: 1
Flags: W
LayerCount: 2
Fore
SplineSet
428 143 m 1,0,-1
 428 428 l 1,1,-1
 571 428 l 1,2,-1
 571 143 l 1,3,-1
 428 143 l 1,0,-1
428 571 m 1,4,-1
 428 714 l 1,5,-1
 571 714 l 1,6,-1
 571 571 l 1,7,-1
 428 571 l 1,4,-1
0 0 m 1,8,-1
 0 857 l 1,9,-1
 428 857 l 1,10,-1
 428 714 l 1,11,-1
 143 714 l 1,12,-1
 143 571 l 1,13,-1
 428 571 l 1,14,15
 428 570 428 570 428 428 c 1,16,-1
 143 428 l 1,17,-1
 143 143 l 1,18,-1
 428 143 l 1,19,-1
 428 0 l 1,20,-1
 0 0 l 1,8,-1
EndSplineSet
EndChar

StartChar: C
Encoding: 67 67 38
Width: 714
GlyphClass: 1
Flags: W
LayerCount: 2
Fore
SplineSet
143 0 m 1,0,-1
 143 143 l 1,1,-1
 428 143 l 1,2,-1
 428 0 l 1,3,-1
 143 0 l 1,0,-1
428 143 m 1,4,-1
 428 285 l 1,5,-1
 571 285 l 1,6,-1
 571 143 l 1,7,-1
 428 143 l 1,4,-1
0 143 m 1,8,-1
 0 714 l 1,9,-1
 143 714 l 1,10,-1
 143 143 l 1,11,-1
 0 143 l 1,8,-1
428 571 m 1,12,-1
 428 714 l 1,13,-1
 571 714 l 1,14,-1
 571 571 l 1,15,-1
 428 571 l 1,12,-1
143 714 m 1,16,17
 143 715 143 715 143 857 c 1,18,-1
 428 857 l 1,19,-1
 428 714 l 1,20,-1
 143 714 l 1,16,17
EndSplineSet
EndChar

StartChar: D
Encoding: 68 68 39
Width: 714
GlyphClass: 1
Flags: W
LayerCount: 2
Fore
SplineSet
428 143 m 1,0,-1
 428 714 l 1,1,-1
 571 714 l 1,2,-1
 571 143 l 1,3,-1
 428 143 l 1,0,-1
0 0 m 1,4,-1
 0 857 l 1,5,-1
 428 857 l 1,6,-1
 428 714 l 1,7,-1
 143 714 l 1,8,-1
 143 143 l 1,9,-1
 428 143 l 1,10,-1
 428 0 l 1,11,-1
 0 0 l 1,4,-1
EndSplineSet
EndChar

StartChar: E
Encoding: 69 69 40
Width: 714
GlyphClass: 1
Flags: W
LayerCount: 2
Fore
SplineSet
0 0 m 1,0,-1
 0 857 l 1,1,-1
 571 857 l 1,2,-1
 571 714 l 1,3,-1
 143 714 l 1,4,-1
 143 571 l 1,5,-1
 428 571 l 1,6,7
 428 570 428 570 428 428 c 1,8,-1
 143 428 l 1,9,-1
 143 143 l 1,10,-1
 571 143 l 1,11,-1
 571 0 l 1,12,-1
 0 0 l 1,0,-1
EndSplineSet
EndChar

StartChar: F
Encoding: 70 70 41
Width: 714
GlyphClass: 1
Flags: W
LayerCount: 2
Fore
SplineSet
0 0 m 1,0,-1
 0 857 l 1,1,-1
 571 857 l 1,2,-1
 571 714 l 1,3,-1
 143 714 l 1,4,-1
 143 571 l 1,5,-1
 428 571 l 1,6,7
 428 570 428 570 428 428 c 1,8,-1
 143 428 l 1,9,-1
 143 0 l 1,10,-1
 0 0 l 1,0,-1
EndSplineSet
EndChar

StartChar: G
Encoding: 71 71 42
Width: 714
GlyphClass: 1
Flags: W
LayerCount: 2
Fore
SplineSet
143 0 m 1,0,-1
 143 143 l 1,1,-1
 428 143 l 1,2,-1
 428 0 l 1,3,-1
 143 0 l 1,0,-1
428 143 m 1,4,-1
 428 285 l 1,5,-1
 285 285 l 1,6,-1
 285 428 l 1,7,-1
 571 428 l 1,8,-1
 571 143 l 1,9,-1
 428 143 l 1,4,-1
0 143 m 1,10,-1
 0 714 l 1,11,-1
 143 714 l 1,12,-1
 143 143 l 1,13,-1
 0 143 l 1,10,-1
428 571 m 1,14,-1
 428 714 l 1,15,-1
 571 714 l 1,16,-1
 571 571 l 1,17,-1
 428 571 l 1,14,-1
143 714 m 1,18,19
 143 715 143 715 143 857 c 1,20,-1
 428 857 l 1,21,-1
 428 714 l 1,22,-1
 143 714 l 1,18,19
EndSplineSet
EndChar

StartChar: H
Encoding: 72 72 43
Width: 714
GlyphClass: 1
Flags: W
LayerCount: 2
Fore
SplineSet
0 0 m 1,0,-1
 0 857 l 1,1,-1
 143 857 l 1,2,-1
 143 571 l 1,3,-1
 428 571 l 1,4,5
 428 572 428 572 428 857 c 1,6,-1
 571 857 l 1,7,-1
 571 0 l 1,8,9
 570 0 570 0 428 0 c 1,10,-1
 428 428 l 1,11,-1
 143 428 l 1,12,-1
 143 0 l 1,13,-1
 0 0 l 1,0,-1
EndSplineSet
EndChar

StartChar: I
Encoding: 73 73 44
Width: 571
GlyphClass: 1
Flags: W
LayerCount: 2
Fore
SplineSet
0 0 m 1,0,-1
 0 143 l 1,1,-1
 143 143 l 1,2,-1
 143 714 l 1,3,-1
 0 714 l 1,4,5
 0 715 0 715 0 857 c 1,6,-1
 428 857 l 1,7,-1
 428 714 l 1,8,-1
 285 714 l 1,9,-1
 285 143 l 1,10,-1
 428 143 l 1,11,-1
 428 0 l 1,12,-1
 0 0 l 1,0,-1
EndSplineSet
EndChar

StartChar: J
Encoding: 74 74 45
Width: 714
GlyphClass: 1
Flags: W
LayerCount: 2
Fore
SplineSet
143 0 m 1,0,-1
 143 143 l 1,1,-1
 428 143 l 1,2,-1
 428 0 l 1,3,-1
 143 0 l 1,0,-1
0 143 m 1,4,-1
 0 285 l 1,5,-1
 143 285 l 1,6,-1
 143 143 l 1,7,-1
 0 143 l 1,4,-1
428 143 m 1,8,-1
 428 714 l 1,9,-1
 143 714 l 1,10,11
 143 715 143 715 143 857 c 1,12,-1
 571 857 l 1,13,-1
 571 143 l 1,14,-1
 428 143 l 1,8,-1
EndSplineSet
EndChar

StartChar: K
Encoding: 75 75 46
Width: 714
GlyphClass: 1
Flags: W
LayerCount: 2
Fore
SplineSet
428 0 m 1,0,-1
 428 143 l 1,1,-1
 571 143 l 1,2,-1
 571 0 l 1,3,-1
 428 0 l 1,0,-1
285 143 m 1,4,-1
 285 428 l 1,5,-1
 428 428 l 1,6,-1
 428 143 l 1,7,-1
 285 143 l 1,4,-1
285 571 m 1,8,-1
 285 714 l 1,9,-1
 428 714 l 1,10,-1
 428 571 l 1,11,-1
 285 571 l 1,8,-1
0 0 m 1,12,-1
 0 857 l 1,13,-1
 143 857 l 1,14,-1
 143 571 l 1,15,-1
 285 571 l 1,16,17
 285 570 285 570 285 428 c 1,18,-1
 143 428 l 1,19,-1
 143 0 l 1,20,-1
 0 0 l 1,12,-1
428 714 m 1,21,22
 428 715 428 715 428 857 c 1,23,-1
 571 857 l 1,24,-1
 571 714 l 1,25,-1
 428 714 l 1,21,22
EndSplineSet
EndChar

StartChar: L
Encoding: 76 76 47
Width: 714
GlyphClass: 1
Flags: W
LayerCount: 2
Fore
SplineSet
0 0 m 1,0,-1
 0 857 l 1,1,-1
 143 857 l 1,2,-1
 143 143 l 1,3,-1
 571 143 l 1,4,-1
 571 0 l 1,5,-1
 0 0 l 1,0,-1
EndSplineSet
EndChar

StartChar: M
Encoding: 77 77 48
Width: 857
GlyphClass: 1
Flags: W
LayerCount: 2
Fore
SplineSet
285 428 m 1,0,-1
 285 571 l 1,1,-1
 428 571 l 1,2,3
 428 570 428 570 428 428 c 1,4,-1
 285 428 l 1,0,-1
0 0 m 1,5,-1
 0 857 l 1,6,-1
 143 857 l 1,7,-1
 143 714 l 1,8,-1
 285 714 l 1,9,-1
 285 571 l 1,10,-1
 143 571 l 1,11,-1
 143 0 l 1,12,-1
 0 0 l 1,5,-1
571 0 m 1,13,-1
 571 571 l 1,14,15
 570 571 570 571 428 571 c 1,16,-1
 428 714 l 1,17,-1
 571 714 l 1,18,19
 571 715 571 715 571 857 c 1,20,-1
 714 857 l 1,21,-1
 714 0 l 1,22,-1
 571 0 l 1,13,-1
EndSplineSet
EndChar

StartChar: N
Encoding: 78 78 49
Width: 857
GlyphClass: 1
Flags: W
LayerCount: 2
Fore
SplineSet
285 428 m 1,0,-1
 285 571 l 1,1,-1
 428 571 l 1,2,3
 428 570 428 570 428 428 c 1,4,-1
 285 428 l 1,0,-1
0 0 m 1,5,-1
 0 857 l 1,6,-1
 143 857 l 1,7,-1
 143 714 l 1,8,-1
 285 714 l 1,9,-1
 285 571 l 1,10,-1
 143 571 l 1,11,-1
 143 0 l 1,12,-1
 0 0 l 1,5,-1
571 0 m 1,13,-1
 571 285 l 1,14,15
 570 285 570 285 428 285 c 1,16,-1
 428 428 l 1,17,-1
 571 428 l 1,18,-1
 571 857 l 1,19,-1
 714 857 l 1,20,-1
 714 0 l 1,21,-1
 571 0 l 1,13,-1
EndSplineSet
EndChar

StartChar: O
Encoding: 79 79 50
Width: 857
GlyphClass: 1
Flags: W
LayerCount: 2
Fore
SplineSet
143 0 m 1,0,-1
 143 143 l 1,1,-1
 571 143 l 1,2,-1
 571 0 l 1,3,-1
 143 0 l 1,0,-1
0 143 m 1,4,-1
 0 714 l 1,5,-1
 143 714 l 1,6,-1
 143 143 l 1,7,-1
 0 143 l 1,4,-1
571 143 m 1,8,-1
 571 714 l 1,9,-1
 714 714 l 1,10,-1
 714 143 l 1,11,-1
 571 143 l 1,8,-1
143 714 m 1,12,13
 143 715 143 715 143 857 c 1,14,-1
 571 857 l 1,15,-1
 571 714 l 1,16,-1
 143 714 l 1,12,13
EndSplineSet
EndChar

StartChar: P
Encoding: 80 80 51
Width: 714
GlyphClass: 1
Flags: W
LayerCount: 2
Fore
SplineSet
428 428 m 1,0,-1
 428 714 l 1,1,-1
 571 714 l 1,2,3
 571 713 571 713 571 428 c 1,4,-1
 428 428 l 1,0,-1
0 0 m 1,5,-1
 0 857 l 1,6,-1
 428 857 l 1,7,-1
 428 714 l 1,8,-1
 143 714 l 1,9,10
 143 713 143 713 143 428 c 1,11,-1
 428 428 l 1,12,-1
 428 285 l 1,13,-1
 143 285 l 1,14,-1
 143 0 l 1,15,-1
 0 0 l 1,5,-1
EndSplineSet
EndChar

StartChar: Q
Encoding: 81 81 52
Width: 857
GlyphClass: 1
Flags: W
LayerCount: 2
Fore
SplineSet
143 0 m 1,0,-1
 143 143 l 1,1,-1
 428 143 l 1,2,-1
 428 0 l 1,3,-1
 143 0 l 1,0,-1
571 0 m 1,4,-1
 571 143 l 1,5,-1
 714 143 l 1,6,-1
 714 0 l 1,7,-1
 571 0 l 1,4,-1
0 143 m 1,8,-1
 0 714 l 1,9,-1
 143 714 l 1,10,-1
 143 143 l 1,11,-1
 0 143 l 1,8,-1
428 143 m 1,12,-1
 428 714 l 1,13,-1
 571 714 l 1,14,-1
 571 143 l 1,15,-1
 428 143 l 1,12,-1
143 714 m 1,16,17
 143 715 143 715 143 857 c 1,18,-1
 428 857 l 1,19,-1
 428 714 l 1,20,-1
 143 714 l 1,16,17
EndSplineSet
EndChar

StartChar: R
Encoding: 82 82 53
Width: 714
GlyphClass: 1
Flags: W
LayerCount: 2
Fore
SplineSet
428 0 m 1,0,-1
 428 285 l 1,1,-1
 571 285 l 1,2,-1
 571 0 l 1,3,-1
 428 0 l 1,0,-1
428 428 m 1,4,-1
 428 714 l 1,5,-1
 571 714 l 1,6,7
 571 713 571 713 571 428 c 1,8,-1
 428 428 l 1,4,-1
0 0 m 1,9,-1
 0 857 l 1,10,-1
 428 857 l 1,11,-1
 428 714 l 1,12,-1
 143 714 l 1,13,14
 143 713 143 713 143 428 c 1,15,-1
 428 428 l 1,16,-1
 428 285 l 1,17,-1
 143 285 l 1,18,-1
 143 0 l 1,19,-1
 0 0 l 1,9,-1
EndSplineSet
EndChar

StartChar: S
Encoding: 83 83 54
Width: 714
GlyphClass: 1
Flags: W
LayerCount: 2
Fore
SplineSet
0 0 m 1,0,-1
 0 143 l 1,1,-1
 428 143 l 1,2,-1
 428 0 l 1,3,-1
 0 0 l 1,0,-1
428 143 m 1,4,-1
 428 428 l 1,5,-1
 571 428 l 1,6,-1
 571 143 l 1,7,-1
 428 143 l 1,4,-1
143 428 m 1,8,-1
 143 571 l 1,9,-1
 428 571 l 1,10,11
 428 570 428 570 428 428 c 1,12,-1
 143 428 l 1,8,-1
0 571 m 1,13,-1
 0 714 l 1,14,-1
 143 714 l 1,15,-1
 143 571 l 1,16,-1
 0 571 l 1,13,-1
143 714 m 1,17,18
 143 715 143 715 143 857 c 1,19,-1
 571 857 l 1,20,-1
 571 714 l 1,21,-1
 143 714 l 1,17,18
EndSplineSet
EndChar

StartChar: T
Encoding: 84 84 55
Width: 857
GlyphClass: 1
Flags: W
LayerCount: 2
Fore
SplineSet
285 0 m 1,0,-1
 285 714 l 1,1,-1
 0 714 l 1,2,3
 0 715 0 715 0 857 c 1,4,-1
 714 857 l 1,5,-1
 714 714 l 1,6,7
 713 714 713 714 428 714 c 1,8,-1
 428 0 l 1,9,-1
 285 0 l 1,0,-1
EndSplineSet
EndChar

StartChar: U
Encoding: 85 85 56
Width: 857
GlyphClass: 1
Flags: W
LayerCount: 2
Fore
SplineSet
143 0 m 1,0,-1
 143 143 l 1,1,-1
 571 143 l 1,2,-1
 571 0 l 1,3,-1
 143 0 l 1,0,-1
0 143 m 1,4,-1
 0 857 l 1,5,-1
 143 857 l 1,6,-1
 143 143 l 1,7,-1
 0 143 l 1,4,-1
571 143 m 1,8,-1
 571 857 l 1,9,-1
 714 857 l 1,10,-1
 714 143 l 1,11,-1
 571 143 l 1,8,-1
EndSplineSet
EndChar

StartChar: V
Encoding: 86 86 57
Width: 857
GlyphClass: 1
Flags: W
LayerCount: 2
Fore
SplineSet
285 0 m 1,0,-1
 285 285 l 1,1,-1
 428 285 l 1,2,-1
 428 0 l 1,3,-1
 285 0 l 1,0,-1
143 285 m 1,4,-1
 143 571 l 1,5,-1
 285 571 l 1,6,7
 285 570 285 570 285 285 c 1,8,-1
 143 285 l 1,4,-1
428 285 m 1,9,-1
 428 571 l 1,10,-1
 571 571 l 1,11,12
 571 570 571 570 571 285 c 1,13,-1
 428 285 l 1,9,-1
0 571 m 1,14,15
 0 572 0 572 0 857 c 1,16,-1
 143 857 l 1,17,-1
 143 571 l 1,18,-1
 0 571 l 1,14,15
571 571 m 1,19,20
 571 572 571 572 571 857 c 1,21,-1
 714 857 l 1,22,-1
 714 571 l 1,23,-1
 571 571 l 1,19,20
EndSplineSet
EndChar

StartChar: W
Encoding: 87 87 58
Width: 857
GlyphClass: 1
Flags: W
LayerCount: 2
Fore
SplineSet
143 0 m 1,0,-1
 143 143 l 1,1,-1
 285 143 l 1,2,-1
 285 0 l 1,3,-1
 143 0 l 1,0,-1
428 0 m 1,4,-1
 428 143 l 1,5,-1
 571 143 l 1,6,-1
 571 0 l 1,7,-1
 428 0 l 1,4,-1
285 143 m 1,8,-1
 285 714 l 1,9,-1
 428 714 l 1,10,-1
 428 143 l 1,11,-1
 285 143 l 1,8,-1
0 143 m 1,12,-1
 0 857 l 1,13,-1
 143 857 l 1,14,-1
 143 143 l 1,15,-1
 0 143 l 1,12,-1
571 143 m 1,16,-1
 571 857 l 1,17,-1
 714 857 l 1,18,-1
 714 143 l 1,19,-1
 571 143 l 1,16,-1
EndSplineSet
EndChar

StartChar: X
Encoding: 88 88 59
Width: 857
GlyphClass: 1
Flags: W
LayerCount: 2
Fore
SplineSet
0 0 m 1,0,-1
 0 285 l 1,1,-1
 143 285 l 1,2,-1
 143 0 l 1,3,-1
 0 0 l 1,0,-1
571 0 m 1,4,-1
 571 285 l 1,5,-1
 714 285 l 1,6,-1
 714 0 l 1,7,-1
 571 0 l 1,4,-1
143 285 m 1,8,-1
 143 428 l 1,9,-1
 285 428 l 1,10,-1
 285 285 l 1,11,-1
 143 285 l 1,8,-1
428 285 m 1,12,-1
 428 428 l 1,13,-1
 571 428 l 1,14,-1
 571 285 l 1,15,-1
 428 285 l 1,12,-1
285 428 m 1,16,-1
 285 571 l 1,17,-1
 428 571 l 1,18,19
 428 570 428 570 428 428 c 1,20,-1
 285 428 l 1,16,-1
143 571 m 1,21,-1
 143 714 l 1,22,-1
 285 714 l 1,23,-1
 285 571 l 1,24,-1
 143 571 l 1,21,-1
428 571 m 1,25,-1
 428 714 l 1,26,-1
 571 714 l 1,27,-1
 571 571 l 1,28,-1
 428 571 l 1,25,-1
0 714 m 1,29,30
 0 715 0 715 0 857 c 1,31,-1
 143 857 l 1,32,-1
 143 714 l 1,33,-1
 0 714 l 1,29,30
571 714 m 1,34,35
 571 715 571 715 571 857 c 1,36,-1
 714 857 l 1,37,-1
 714 714 l 1,38,-1
 571 714 l 1,34,35
EndSplineSet
EndChar

StartChar: Y
Encoding: 89 89 60
Width: 857
GlyphClass: 1
Flags: W
LayerCount: 2
Fore
SplineSet
285 0 m 5,0,-1
 285 428 l 5,1,-1
 428 428 l 5,2,-1
 428 0 l 5,3,-1
 285 0 l 5,0,-1
143 428 m 5,4,-1
 143 571 l 5,5,-1
 285 571 l 5,6,7
 285 570 285 570 285 428 c 5,8,-1
 143 428 l 5,4,-1
428 428 m 5,9,-1
 428 571 l 5,10,-1
 571 571 l 5,11,12
 571 570 571 570 571 428 c 5,13,-1
 428 428 l 5,9,-1
0 571 m 5,14,15
 0 572 0 572 0 857 c 5,16,-1
 143 857 l 5,17,-1
 143 571 l 5,18,-1
 0 571 l 5,14,15
571 571 m 5,19,20
 571 572 571 572 571 857 c 5,21,-1
 714 857 l 5,22,-1
 714 571 l 5,23,-1
 571 571 l 5,19,20
EndSplineSet
EndChar

StartChar: Z
Encoding: 90 90 61
Width: 714
GlyphClass: 1
Flags: W
LayerCount: 2
Fore
SplineSet
0 0 m 1,0,-1
 0 285 l 1,1,-1
 143 285 l 1,2,-1
 143 143 l 1,3,-1
 571 143 l 1,4,-1
 571 0 l 1,5,-1
 0 0 l 1,0,-1
143 285 m 1,6,-1
 143 428 l 1,7,-1
 285 428 l 1,8,-1
 285 285 l 1,9,-1
 143 285 l 1,6,-1
285 428 m 1,10,-1
 285 571 l 1,11,-1
 428 571 l 1,12,13
 428 570 428 570 428 428 c 1,14,-1
 285 428 l 1,10,-1
428 571 m 1,15,-1
 428 714 l 1,16,-1
 0 714 l 1,17,18
 0 715 0 715 0 857 c 1,19,-1
 571 857 l 1,20,-1
 571 571 l 1,21,-1
 428 571 l 1,15,-1
EndSplineSet
EndChar

StartChar: bracketleft
Encoding: 91 91 62
Width: 428
GlyphClass: 1
Flags: W
LayerCount: 2
Fore
SplineSet
0 -143 m 1,0,-1
 0 857 l 1,1,-1
 285 857 l 1,2,-1
 285 714 l 1,3,-1
 143 714 l 1,4,-1
 143 0 l 1,5,-1
 285 0 l 1,6,-1
 285 -143 l 1,7,-1
 0 -143 l 1,0,-1
EndSplineSet
EndChar

StartChar: backslash
Encoding: 92 92 63
Width: 571
GlyphClass: 1
Flags: W
LayerCount: 2
Fore
SplineSet
285 0 m 1,0,-1
 285 285 l 1,1,-1
 428 285 l 1,2,-1
 428 0 l 1,3,-1
 285 0 l 1,0,-1
143 285 m 1,4,-1
 143 571 l 1,5,-1
 285 571 l 1,6,7
 285 570 285 570 285 285 c 1,8,-1
 143 285 l 1,4,-1
0 571 m 1,9,10
 0 572 0 572 0 857 c 1,11,-1
 143 857 l 1,12,-1
 143 571 l 1,13,-1
 0 571 l 1,9,10
EndSplineSet
EndChar

StartChar: bracketright
Encoding: 93 93 64
Width: 428
GlyphClass: 1
Flags: W
LayerCount: 2
Fore
SplineSet
0 -143 m 1,0,-1
 0 0 l 1,1,-1
 143 0 l 1,2,-1
 143 714 l 1,3,-1
 0 714 l 1,4,5
 0 715 0 715 0 857 c 1,6,-1
 285 857 l 1,7,-1
 285 -143 l 1,8,-1
 0 -143 l 1,0,-1
EndSplineSet
EndChar

StartChar: asciicircum
Encoding: 94 94 65
Width: 857
GlyphClass: 1
Flags: W
LayerCount: 2
Fore
SplineSet
0 428 m 1,0,-1
 0 571 l 1,1,-1
 143 571 l 1,2,3
 143 570 143 570 143 428 c 1,4,-1
 0 428 l 1,0,-1
571 428 m 1,5,-1
 571 571 l 1,6,-1
 714 571 l 1,7,8
 714 570 714 570 714 428 c 1,9,-1
 571 428 l 1,5,-1
143 571 m 1,10,-1
 143 714 l 1,11,-1
 285 714 l 1,12,-1
 285 571 l 1,13,-1
 143 571 l 1,10,-1
428 571 m 1,14,-1
 428 714 l 1,15,-1
 571 714 l 1,16,-1
 571 571 l 1,17,-1
 428 571 l 1,14,-1
285 714 m 1,18,19
 285 715 285 715 285 857 c 1,20,-1
 428 857 l 1,21,-1
 428 714 l 1,22,-1
 285 714 l 1,18,19
EndSplineSet
EndChar

StartChar: underscore
Encoding: 95 95 66
Width: 714
GlyphClass: 1
Flags: W
LayerCount: 2
Fore
SplineSet
0 -143 m 1,0,-1
 0 0 l 1,1,-1
 571 0 l 1,2,-1
 571 -143 l 1,3,-1
 0 -143 l 1,0,-1
EndSplineSet
EndChar

StartChar: grave
Encoding: 96 96 67
Width: 428
GlyphClass: 1
Flags: W
LayerCount: 2
Fore
SplineSet
143 571 m 1,0,-1
 143 714 l 1,1,-1
 285 714 l 1,2,-1
 285 571 l 1,3,-1
 143 571 l 1,0,-1
0 714 m 1,4,5
 0 715 0 715 0 857 c 1,6,-1
 143 857 l 1,7,-1
 143 714 l 1,8,-1
 0 714 l 1,4,5
EndSplineSet
EndChar

StartChar: a
Encoding: 97 97 68
Width: 714
GlyphClass: 1
Flags: W
LayerCount: 2
Fore
SplineSet
0 143 m 1,0,-1
 0 571 l 1,1,-1
 143 571 l 1,2,-1
 143 143 l 1,3,-1
 0 143 l 1,0,-1
143 0 m 1,4,-1
 143 143 l 1,5,-1
 428 143 l 1,6,-1
 428 571 l 1,7,-1
 143 571 l 1,8,-1
 143 714 l 1,9,-1
 571 714 l 1,10,-1
 571 0 l 1,11,-1
 143 0 l 1,4,-1
EndSplineSet
EndChar

StartChar: b
Encoding: 98 98 69
Width: 714
GlyphClass: 1
Flags: W
LayerCount: 2
Fore
SplineSet
428 143 m 1,0,-1
 428 571 l 1,1,-1
 571 571 l 1,2,-1
 571 143 l 1,3,-1
 428 143 l 1,0,-1
0 0 m 1,4,-1
 0 857 l 1,5,-1
 143 857 l 1,6,-1
 143 714 l 1,7,-1
 428 714 l 1,8,-1
 428 571 l 1,9,-1
 143 571 l 1,10,-1
 143 143 l 1,11,-1
 428 143 l 1,12,-1
 428 0 l 1,13,-1
 0 0 l 1,4,-1
EndSplineSet
EndChar

StartChar: c
Encoding: 99 99 70
Width: 714
GlyphClass: 1
Flags: W
LayerCount: 2
Fore
SplineSet
143 0 m 1,0,-1
 143 143 l 1,1,-1
 428 143 l 1,2,-1
 428 0 l 1,3,-1
 143 0 l 1,0,-1
428 143 m 1,4,-1
 428 285 l 1,5,-1
 571 285 l 1,6,-1
 571 143 l 1,7,-1
 428 143 l 1,4,-1
0 143 m 1,8,-1
 0 571 l 1,9,-1
 143 571 l 1,10,-1
 143 143 l 1,11,-1
 0 143 l 1,8,-1
428 428 m 1,12,-1
 428 571 l 1,13,-1
 571 571 l 1,14,15
 571 570 571 570 571 428 c 1,16,-1
 428 428 l 1,12,-1
143 571 m 1,17,-1
 143 714 l 1,18,-1
 428 714 l 1,19,-1
 428 571 l 1,20,-1
 143 571 l 1,17,-1
EndSplineSet
EndChar

StartChar: d
Encoding: 100 100 71
Width: 714
GlyphClass: 1
Flags: W
LayerCount: 2
Fore
SplineSet
0 143 m 1,0,-1
 0 571 l 1,1,-1
 143 571 l 1,2,-1
 143 143 l 1,3,-1
 0 143 l 1,0,-1
143 0 m 1,4,-1
 143 143 l 1,5,-1
 428 143 l 1,6,-1
 428 571 l 1,7,-1
 143 571 l 1,8,-1
 143 714 l 1,9,-1
 428 714 l 1,10,11
 428 715 428 715 428 857 c 1,12,-1
 571 857 l 1,13,-1
 571 0 l 1,14,-1
 143 0 l 1,4,-1
EndSplineSet
EndChar

StartChar: e
Encoding: 101 101 72
Width: 714
GlyphClass: 1
Flags: W
LayerCount: 2
Fore
SplineSet
143 0 m 1,0,-1
 143 143 l 1,1,-1
 571 143 l 1,2,-1
 571 0 l 1,3,-1
 143 0 l 1,0,-1
0 143 m 1,4,-1
 0 571 l 1,5,-1
 143 571 l 1,6,7
 143 570 143 570 143 428 c 1,8,-1
 428 428 l 1,9,-1
 428 571 l 1,10,-1
 571 571 l 1,11,12
 571 570 571 570 571 285 c 1,13,-1
 143 285 l 1,14,-1
 143 143 l 1,15,-1
 0 143 l 1,4,-1
143 571 m 1,16,-1
 143 714 l 1,17,-1
 428 714 l 1,18,-1
 428 571 l 1,19,-1
 143 571 l 1,16,-1
EndSplineSet
EndChar

StartChar: f
Encoding: 102 102 73
Width: 571
GlyphClass: 1
Flags: W
LayerCount: 2
Fore
SplineSet
0 0 m 1,0,-1
 0 714 l 1,1,-1
 143 714 l 1,2,3
 143 713 143 713 143 428 c 1,4,-1
 428 428 l 1,5,-1
 428 285 l 1,6,-1
 143 285 l 1,7,-1
 143 0 l 1,8,-1
 0 0 l 1,0,-1
143 714 m 1,9,10
 143 715 143 715 143 857 c 1,11,-1
 428 857 l 1,12,-1
 428 714 l 1,13,-1
 143 714 l 1,9,10
EndSplineSet
EndChar

StartChar: g
Encoding: 103 103 74
Width: 714
GlyphClass: 1
Flags: W
LayerCount: 2
Fore
SplineSet
0 -143 m 1,0,-1
 0 0 l 1,1,-1
 428 0 l 1,2,-1
 428 -143 l 1,3,-1
 0 -143 l 1,0,-1
0 285 m 1,4,-1
 0 571 l 1,5,-1
 143 571 l 1,6,7
 143 570 143 570 143 285 c 1,8,-1
 0 285 l 1,4,-1
428 0 m 1,9,-1
 428 143 l 1,10,-1
 143 143 l 1,11,-1
 143 285 l 1,12,-1
 428 285 l 1,13,-1
 428 571 l 1,14,-1
 143 571 l 1,15,-1
 143 714 l 1,16,-1
 571 714 l 1,17,-1
 571 0 l 1,18,-1
 428 0 l 1,9,-1
EndSplineSet
EndChar

StartChar: h
Encoding: 104 104 75
Width: 714
GlyphClass: 1
Flags: W
LayerCount: 2
Fore
SplineSet
428 0 m 1,0,-1
 428 428 l 1,1,-1
 571 428 l 1,2,-1
 571 0 l 1,3,-1
 428 0 l 1,0,-1
0 0 m 1,4,-1
 0 857 l 1,5,-1
 143 857 l 1,6,-1
 143 571 l 1,7,-1
 428 571 l 1,8,9
 428 570 428 570 428 428 c 1,10,-1
 143 428 l 1,11,-1
 143 0 l 1,12,-1
 0 0 l 1,4,-1
EndSplineSet
EndChar

StartChar: i
Encoding: 105 105 76
Width: 285
GlyphClass: 1
Flags: W
LayerCount: 2
Fore
SplineSet
0 0 m 1,0,-1
 0 571 l 1,1,-1
 143 571 l 1,2,-1
 143 0 l 1,3,-1
 0 0 l 1,0,-1
0 714 m 1,4,5
 0 715 0 715 0 857 c 1,6,-1
 143 857 l 1,7,-1
 143 714 l 1,8,-1
 0 714 l 1,4,5
EndSplineSet
EndChar

StartChar: j
Encoding: 106 106 77
Width: 571
GlyphClass: 1
Flags: W
LayerCount: 2
Fore
SplineSet
0 0 m 1,0,-1
 0 143 l 1,1,-1
 285 143 l 1,2,-1
 285 0 l 1,3,-1
 0 0 l 1,0,-1
285 143 m 1,4,-1
 285 428 l 1,5,-1
 143 428 l 1,6,-1
 143 571 l 1,7,-1
 428 571 l 1,8,-1
 428 143 l 1,9,-1
 285 143 l 1,4,-1
285 714 m 1,10,11
 285 715 285 715 285 857 c 1,12,-1
 428 857 l 1,13,-1
 428 714 l 1,14,-1
 285 714 l 1,10,11
EndSplineSet
EndChar

StartChar: k
Encoding: 107 107 78
Width: 714
GlyphClass: 1
Flags: W
LayerCount: 2
Fore
SplineSet
428 0 m 1,0,-1
 428 143 l 1,1,-1
 571 143 l 1,2,-1
 571 0 l 1,3,-1
 428 0 l 1,0,-1
285 143 m 1,4,-1
 285 285 l 1,5,-1
 428 285 l 1,6,-1
 428 143 l 1,7,-1
 285 143 l 1,4,-1
285 428 m 1,8,-1
 285 571 l 1,9,-1
 428 571 l 1,10,11
 428 570 428 570 428 428 c 1,12,-1
 285 428 l 1,8,-1
428 571 m 1,13,-1
 428 714 l 1,14,-1
 571 714 l 1,15,-1
 571 571 l 1,16,-1
 428 571 l 1,13,-1
0 0 m 1,17,-1
 0 857 l 1,18,-1
 143 857 l 1,19,-1
 143 428 l 1,20,-1
 285 428 l 1,21,-1
 285 285 l 1,22,-1
 143 285 l 1,23,-1
 143 0 l 1,24,-1
 0 0 l 1,17,-1
EndSplineSet
EndChar

StartChar: l
Encoding: 108 108 79
Width: 285
GlyphClass: 1
Flags: W
LayerCount: 2
Fore
SplineSet
0 0 m 1,0,-1
 0 857 l 1,1,-1
 143 857 l 1,2,-1
 143 0 l 1,3,-1
 0 0 l 1,0,-1
EndSplineSet
EndChar

StartChar: m
Encoding: 109 109 80
Width: 857
GlyphClass: 1
Flags: W
LayerCount: 2
Fore
SplineSet
571 0 m 1,0,-1
 571 571 l 1,1,-1
 714 571 l 1,2,-1
 714 0 l 1,3,-1
 571 0 l 1,0,-1
0 0 m 1,4,-1
 0 714 l 1,5,-1
 571 714 l 1,6,-1
 571 571 l 1,7,8
 570 571 570 571 428 571 c 1,9,-1
 428 0 l 1,10,-1
 285 0 l 1,11,-1
 285 571 l 1,12,-1
 143 571 l 1,13,-1
 143 0 l 1,14,-1
 0 0 l 1,4,-1
EndSplineSet
EndChar

StartChar: n
Encoding: 110 110 81
Width: 714
GlyphClass: 1
Flags: W
LayerCount: 2
Fore
SplineSet
428 0 m 1,0,-1
 428 571 l 1,1,-1
 571 571 l 1,2,-1
 571 0 l 1,3,-1
 428 0 l 1,0,-1
0 0 m 1,4,-1
 0 714 l 1,5,-1
 428 714 l 1,6,-1
 428 571 l 1,7,-1
 143 571 l 1,8,-1
 143 0 l 1,9,-1
 0 0 l 1,4,-1
EndSplineSet
EndChar

StartChar: o
Encoding: 111 111 82
Width: 714
GlyphClass: 1
Flags: W
LayerCount: 2
Fore
SplineSet
143 0 m 1,0,-1
 143 143 l 1,1,-1
 428 143 l 1,2,-1
 428 0 l 1,3,-1
 143 0 l 1,0,-1
0 143 m 1,4,-1
 0 571 l 1,5,-1
 143 571 l 1,6,-1
 143 143 l 1,7,-1
 0 143 l 1,4,-1
428 143 m 1,8,-1
 428 571 l 1,9,-1
 571 571 l 1,10,-1
 571 143 l 1,11,-1
 428 143 l 1,8,-1
143 571 m 1,12,-1
 143 714 l 1,13,-1
 428 714 l 1,14,-1
 428 571 l 1,15,-1
 143 571 l 1,12,-1
EndSplineSet
EndChar

StartChar: p
Encoding: 112 112 83
Width: 714
GlyphClass: 1
Flags: W
LayerCount: 2
Fore
SplineSet
428 285 m 1,0,-1
 428 571 l 1,1,-1
 571 571 l 1,2,3
 571 570 571 570 571 285 c 1,4,-1
 428 285 l 1,0,-1
0 -143 m 1,5,-1
 0 714 l 1,6,-1
 428 714 l 1,7,-1
 428 571 l 1,8,-1
 143 571 l 1,9,10
 143 570 143 570 143 285 c 1,11,-1
 428 285 l 1,12,-1
 428 143 l 1,13,-1
 143 143 l 1,14,-1
 143 -143 l 1,15,-1
 0 -143 l 1,5,-1
EndSplineSet
EndChar

StartChar: q
Encoding: 113 113 84
Width: 714
GlyphClass: 1
Flags: W
LayerCount: 2
Fore
SplineSet
0 285 m 1,0,-1
 0 571 l 1,1,-1
 143 571 l 1,2,3
 143 570 143 570 143 285 c 1,4,-1
 0 285 l 1,0,-1
428 -143 m 1,5,-1
 428 143 l 1,6,-1
 143 143 l 1,7,-1
 143 285 l 1,8,-1
 428 285 l 1,9,-1
 428 571 l 1,10,-1
 143 571 l 1,11,-1
 143 714 l 1,12,-1
 571 714 l 1,13,-1
 571 -143 l 1,14,-1
 428 -143 l 1,5,-1
EndSplineSet
EndChar

StartChar: r
Encoding: 114 114 85
Width: 714
GlyphClass: 1
Flags: W
LayerCount: 2
Fore
SplineSet
428 428 m 1,0,-1
 428 571 l 1,1,-1
 571 571 l 1,2,3
 571 570 571 570 571 428 c 1,4,-1
 428 428 l 1,0,-1
0 0 m 1,5,-1
 0 714 l 1,6,-1
 428 714 l 1,7,-1
 428 571 l 1,8,-1
 143 571 l 1,9,-1
 143 0 l 1,10,-1
 0 0 l 1,5,-1
EndSplineSet
EndChar

StartChar: s
Encoding: 115 115 86
Width: 571
GlyphClass: 1
Flags: W
LayerCount: 2
Fore
SplineSet
0 0 m 1,0,-1
 0 143 l 1,1,-1
 285 143 l 1,2,-1
 285 0 l 1,3,-1
 0 0 l 1,0,-1
285 143 m 1,4,-1
 285 285 l 1,5,-1
 428 285 l 1,6,-1
 428 143 l 1,7,-1
 285 143 l 1,4,-1
143 285 m 1,8,-1
 143 428 l 1,9,-1
 285 428 l 1,10,-1
 285 285 l 1,11,-1
 143 285 l 1,8,-1
0 428 m 1,12,-1
 0 571 l 1,13,-1
 143 571 l 1,14,15
 143 570 143 570 143 428 c 1,16,-1
 0 428 l 1,12,-1
143 571 m 1,17,-1
 143 714 l 1,18,-1
 428 714 l 1,19,-1
 428 571 l 1,20,-1
 143 571 l 1,17,-1
EndSplineSet
EndChar

StartChar: t
Encoding: 116 116 87
Width: 571
GlyphClass: 1
Flags: W
LayerCount: 2
Fore
SplineSet
143 0 m 1,0,-1
 143 143 l 1,1,-1
 428 143 l 1,2,-1
 428 0 l 1,3,-1
 143 0 l 1,0,-1
0 143 m 1,4,-1
 0 857 l 1,5,-1
 143 857 l 1,6,-1
 143 571 l 1,7,-1
 428 571 l 1,8,9
 428 570 428 570 428 428 c 1,10,-1
 143 428 l 1,11,-1
 143 143 l 1,12,-1
 0 143 l 1,4,-1
EndSplineSet
EndChar

StartChar: u
Encoding: 117 117 88
Width: 714
GlyphClass: 1
Flags: W
LayerCount: 2
Fore
SplineSet
0 143 m 1,0,-1
 0 714 l 1,1,-1
 143 714 l 1,2,-1
 143 143 l 1,3,-1
 0 143 l 1,0,-1
143 0 m 1,4,-1
 143 143 l 1,5,-1
 428 143 l 1,6,-1
 428 714 l 1,7,-1
 571 714 l 1,8,-1
 571 0 l 1,9,-1
 143 0 l 1,4,-1
EndSplineSet
EndChar

StartChar: v
Encoding: 118 118 89
Width: 857
GlyphClass: 1
Flags: W
LayerCount: 2
Fore
SplineSet
285 0 m 1,0,-1
 285 143 l 1,1,-1
 428 143 l 1,2,-1
 428 0 l 1,3,-1
 285 0 l 1,0,-1
143 143 m 1,4,-1
 143 428 l 1,5,-1
 285 428 l 1,6,-1
 285 143 l 1,7,-1
 143 143 l 1,4,-1
428 143 m 1,8,-1
 428 428 l 1,9,-1
 571 428 l 1,10,-1
 571 143 l 1,11,-1
 428 143 l 1,8,-1
0 428 m 1,12,-1
 0 714 l 1,13,-1
 143 714 l 1,14,15
 143 713 143 713 143 428 c 1,16,-1
 0 428 l 1,12,-1
571 428 m 1,17,-1
 571 714 l 1,18,-1
 714 714 l 1,19,20
 714 713 714 713 714 428 c 1,21,-1
 571 428 l 1,17,-1
EndSplineSet
EndChar

StartChar: w
Encoding: 119 119 90
Width: 857
GlyphClass: 1
Flags: W
LayerCount: 2
Fore
SplineSet
143 0 m 1,0,-1
 143 285 l 1,1,-1
 285 285 l 1,2,-1
 285 0 l 1,3,-1
 143 0 l 1,0,-1
428 0 m 1,4,-1
 428 285 l 1,5,-1
 571 285 l 1,6,-1
 571 0 l 1,7,-1
 428 0 l 1,4,-1
285 285 m 1,8,-1
 285 571 l 1,9,-1
 428 571 l 1,10,11
 428 570 428 570 428 285 c 1,12,-1
 285 285 l 1,8,-1
0 285 m 1,13,-1
 0 714 l 1,14,-1
 143 714 l 1,15,16
 143 713 143 713 143 285 c 1,17,-1
 0 285 l 1,13,-1
571 285 m 1,18,-1
 571 714 l 1,19,-1
 714 714 l 1,20,21
 714 713 714 713 714 285 c 1,22,-1
 571 285 l 1,18,-1
EndSplineSet
EndChar

StartChar: x
Encoding: 120 120 91
Width: 857
GlyphClass: 1
Flags: W
LayerCount: 2
Fore
SplineSet
0 0 m 1,0,-1
 0 143 l 1,1,-1
 143 143 l 1,2,-1
 143 0 l 1,3,-1
 0 0 l 1,0,-1
571 0 m 1,4,-1
 571 143 l 1,5,-1
 714 143 l 1,6,-1
 714 0 l 1,7,-1
 571 0 l 1,4,-1
143 143 m 1,8,-1
 143 285 l 1,9,-1
 285 285 l 1,10,-1
 285 143 l 1,11,-1
 143 143 l 1,8,-1
428 143 m 1,12,-1
 428 285 l 1,13,-1
 571 285 l 1,14,-1
 571 143 l 1,15,-1
 428 143 l 1,12,-1
285 285 m 1,16,-1
 285 428 l 1,17,-1
 428 428 l 1,18,-1
 428 285 l 1,19,-1
 285 285 l 1,16,-1
143 428 m 1,20,-1
 143 571 l 1,21,-1
 285 571 l 1,22,23
 285 570 285 570 285 428 c 1,24,-1
 143 428 l 1,20,-1
428 428 m 1,25,-1
 428 571 l 1,26,-1
 571 571 l 1,27,28
 571 570 571 570 571 428 c 1,29,-1
 428 428 l 1,25,-1
0 571 m 1,30,-1
 0 714 l 1,31,-1
 143 714 l 1,32,-1
 143 571 l 1,33,-1
 0 571 l 1,30,-1
571 571 m 1,34,-1
 571 714 l 1,35,-1
 714 714 l 1,36,-1
 714 571 l 1,37,-1
 571 571 l 1,34,-1
EndSplineSet
EndChar

StartChar: y
Encoding: 121 121 92
Width: 714
GlyphClass: 1
Flags: W
LayerCount: 2
Fore
SplineSet
0 -143 m 1,0,-1
 0 0 l 1,1,-1
 428 0 l 1,2,-1
 428 -143 l 1,3,-1
 0 -143 l 1,0,-1
0 285 m 1,4,-1
 0 714 l 1,5,-1
 143 714 l 1,6,7
 143 713 143 713 143 285 c 1,8,-1
 0 285 l 1,4,-1
428 0 m 1,9,-1
 428 143 l 1,10,-1
 143 143 l 1,11,-1
 143 285 l 1,12,-1
 428 285 l 1,13,-1
 428 714 l 1,14,-1
 571 714 l 1,15,-1
 571 0 l 1,16,-1
 428 0 l 1,9,-1
EndSplineSet
EndChar

StartChar: z
Encoding: 122 122 93
Width: 714
GlyphClass: 1
Flags: W
LayerCount: 2
Fore
SplineSet
0 0 m 1,0,-1
 0 143 l 1,1,-1
 143 143 l 1,2,-1
 143 285 l 1,3,-1
 285 285 l 1,4,-1
 285 143 l 1,5,-1
 571 143 l 1,6,-1
 571 0 l 1,7,-1
 0 0 l 1,0,-1
285 285 m 1,8,-1
 285 428 l 1,9,-1
 428 428 l 1,10,-1
 428 285 l 1,11,-1
 285 285 l 1,8,-1
428 428 m 1,12,-1
 428 571 l 1,13,-1
 0 571 l 1,14,-1
 0 714 l 1,15,-1
 571 714 l 1,16,17
 571 713 571 713 571 428 c 1,18,-1
 428 428 l 1,12,-1
EndSplineSet
EndChar

StartChar: braceleft
Encoding: 123 123 94
Width: 571
GlyphClass: 1
Flags: W
LayerCount: 2
Fore
SplineSet
285 -143 m 1,0,-1
 285 0 l 1,1,-1
 428 0 l 1,2,-1
 428 -143 l 1,3,-1
 285 -143 l 1,0,-1
143 0 m 1,4,-1
 143 285 l 1,5,-1
 285 285 l 1,6,-1
 285 0 l 1,7,-1
 143 0 l 1,4,-1
0 285 m 1,8,-1
 0 428 l 1,9,-1
 143 428 l 1,10,-1
 143 285 l 1,11,-1
 0 285 l 1,8,-1
143 428 m 1,12,-1
 143 714 l 1,13,-1
 285 714 l 1,14,15
 285 713 285 713 285 428 c 1,16,-1
 143 428 l 1,12,-1
285 714 m 1,17,18
 285 715 285 715 285 857 c 1,19,-1
 428 857 l 1,20,-1
 428 714 l 1,21,-1
 285 714 l 1,17,18
EndSplineSet
EndChar

StartChar: bar
Encoding: 124 124 95
Width: 285
GlyphClass: 1
Flags: W
LayerCount: 2
Fore
SplineSet
0 -143 m 1,0,-1
 0 857 l 1,1,-1
 143 857 l 1,2,-1
 143 -143 l 1,3,-1
 0 -143 l 1,0,-1
EndSplineSet
EndChar

StartChar: braceright
Encoding: 125 125 96
Width: 571
GlyphClass: 1
Flags: W
LayerCount: 2
Fore
SplineSet
0 -143 m 1,0,-1
 0 0 l 1,1,-1
 143 0 l 1,2,-1
 143 -143 l 1,3,-1
 0 -143 l 1,0,-1
143 0 m 1,4,-1
 143 285 l 1,5,-1
 285 285 l 1,6,-1
 285 0 l 1,7,-1
 143 0 l 1,4,-1
285 285 m 1,8,-1
 285 428 l 1,9,-1
 428 428 l 1,10,-1
 428 285 l 1,11,-1
 285 285 l 1,8,-1
143 428 m 1,12,-1
 143 714 l 1,13,-1
 285 714 l 1,14,15
 285 713 285 713 285 428 c 1,16,-1
 143 428 l 1,12,-1
0 714 m 1,17,18
 0 715 0 715 0 857 c 1,19,-1
 143 857 l 1,20,-1
 143 714 l 1,21,-1
 0 714 l 1,17,18
EndSplineSet
EndChar

StartChar: asciitilde
Encoding: 126 126 97
Width: 714
GlyphClass: 1
Flags: W
LayerCount: 2
Fore
SplineSet
0 285 m 1,0,-1
 0 428 l 1,1,-1
 143 428 l 1,2,-1
 143 285 l 1,3,-1
 0 285 l 1,0,-1
285 285 m 1,4,-1
 285 428 l 1,5,-1
 428 428 l 1,6,-1
 428 285 l 1,7,-1
 285 285 l 1,4,-1
143 428 m 1,8,-1
 143 571 l 1,9,-1
 285 571 l 1,10,11
 285 570 285 570 285 428 c 1,12,-1
 143 428 l 1,8,-1
428 428 m 1,13,-1
 428 571 l 1,14,-1
 571 571 l 1,15,16
 571 570 571 570 571 428 c 1,17,-1
 428 428 l 1,13,-1
EndSplineSet
EndChar
